<svg width="200" height="200" viewBox="0 0 200 200" fill="none" xmlns="http://www.w3.org/2000/svg">
  <rect width="200" height="200" fill="#1A202C"/>
  <!-- Punk Cat Head (darker, more edgy) -->
  <rect x="60" y="60" width="80" height="60" fill="#8B0000"/>
  <!-- Left Ear -->
  <rect x="50" y="40" width="20" height="30" fill="#8B0000"/>
  <!-- Right Ear -->
  <rect x="130" y="40" width="20" height="30" fill="#8B0000"/>
  <!-- Mohawk (spiky, bright color) -->
  <rect x="85" y="30" width="30" height="20" fill="#00FF00"/>
  <rect x="80" y="20" width="10" height="10" fill="#00FF00"/>
  <rect x="110" y="20" width="10" height="10" fill="#00FF00"/>
  <!-- Eyes (more intense) -->
  <rect x="75" y="75" width="10" height="10" fill="#FF00FF"/>
  <rect x="115" y="75" width="10" height="10" fill="#FF00FF"/>
  <!-- Nose (pierced?) -->
  <rect x="95" y="95" width="10" height="10" fill="#000000"/>
  <circle cx="100" cy="100" r="3" fill="#C0C0C0"/> <!-- Simple nose ring -->
  <!-- Mouth (grinning/snarling) -->
  <rect x="80" y="105" width="40" height="5" fill="#000000"/>
  <rect x="85" y="110" width="10" height="5" fill="#FFFFFF"/> <!-- Tooth -->
  <rect x="105" y="110" width="10" height="5" fill="#FFFFFF"/> <!-- Tooth -->
  <!-- Whiskers (more jagged) -->
  <rect x="50" y="85" width="20" height="2" fill="#000000"/>
  <rect x="50" y="95" width="20" height="2" fill="#000000"/>
  <rect x="50" y="105" width="20" height="2" fill="#000000"/>
  <rect x="130" y="85" width="20" height="2" fill="#000000"/>
  <rect x="130" y="95" width="20" height="2" fill="#000000"/>
  <rect x="130" y="105" width="20" height="2" fill="#000000"/>
</svg>